<mxfile host="www.draw.io" modified="2023-04-29T16:35:32.417Z" agent="Mozilla/5.0 (X11; Linux x86_64; rv:109.0) Gecko/20100101 Firefox/111.0" etag="mfqJ251POXSZPbKWjXqm" version="21.2.3" type="device">
  <diagram name="Page-1" id="j7-fWOnDBgYI6IMusq9s">
    <mxGraphModel dx="470" dy="779" grid="1" gridSize="10" guides="1" tooltips="1" connect="1" arrows="1" fold="1" page="1" pageScale="1" pageWidth="850" pageHeight="1100" math="0" shadow="0">
      <root>
        <mxCell id="0" />
        <mxCell id="1" parent="0" />
        <mxCell id="oER0Z4YhAjT8M_AFqUaL-1" value="0" style="ellipse;whiteSpace=wrap;html=1;aspect=fixed;fontSize=40;" vertex="1" parent="1">
          <mxGeometry x="260" y="540" width="80" height="80" as="geometry" />
        </mxCell>
        <mxCell id="oER0Z4YhAjT8M_AFqUaL-2" value="4" style="ellipse;whiteSpace=wrap;html=1;aspect=fixed;fontSize=40;" vertex="1" parent="1">
          <mxGeometry x="160" y="470" width="80" height="80" as="geometry" />
        </mxCell>
        <mxCell id="oER0Z4YhAjT8M_AFqUaL-3" value="3" style="ellipse;whiteSpace=wrap;html=1;aspect=fixed;fontSize=40;" vertex="1" parent="1">
          <mxGeometry x="320" y="760" width="80" height="80" as="geometry" />
        </mxCell>
        <mxCell id="oER0Z4YhAjT8M_AFqUaL-4" value="2" style="ellipse;whiteSpace=wrap;html=1;aspect=fixed;fontSize=40;" vertex="1" parent="1">
          <mxGeometry x="320" y="640" width="80" height="80" as="geometry" />
        </mxCell>
        <mxCell id="oER0Z4YhAjT8M_AFqUaL-5" value="5" style="ellipse;whiteSpace=wrap;html=1;aspect=fixed;fontSize=40;" vertex="1" parent="1">
          <mxGeometry x="250" y="350" width="80" height="80" as="geometry" />
        </mxCell>
        <mxCell id="oER0Z4YhAjT8M_AFqUaL-6" value="1" style="ellipse;whiteSpace=wrap;html=1;aspect=fixed;fontSize=40;" vertex="1" parent="1">
          <mxGeometry x="340" y="470" width="80" height="80" as="geometry" />
        </mxCell>
        <mxCell id="oER0Z4YhAjT8M_AFqUaL-7" value="" style="endArrow=none;html=1;rounded=0;entryX=1;entryY=1;entryDx=0;entryDy=0;exitX=0.5;exitY=0;exitDx=0;exitDy=0;" edge="1" parent="1" source="oER0Z4YhAjT8M_AFqUaL-6" target="oER0Z4YhAjT8M_AFqUaL-5">
          <mxGeometry width="50" height="50" relative="1" as="geometry">
            <mxPoint x="300" y="530" as="sourcePoint" />
            <mxPoint x="350" y="480" as="targetPoint" />
          </mxGeometry>
        </mxCell>
        <mxCell id="oER0Z4YhAjT8M_AFqUaL-8" value="" style="endArrow=none;html=1;rounded=0;entryX=0;entryY=1;entryDx=0;entryDy=0;exitX=0.5;exitY=0;exitDx=0;exitDy=0;" edge="1" parent="1" source="oER0Z4YhAjT8M_AFqUaL-2" target="oER0Z4YhAjT8M_AFqUaL-5">
          <mxGeometry width="50" height="50" relative="1" as="geometry">
            <mxPoint x="90" y="490" as="sourcePoint" />
            <mxPoint x="140" y="440" as="targetPoint" />
          </mxGeometry>
        </mxCell>
        <mxCell id="oER0Z4YhAjT8M_AFqUaL-9" value="" style="endArrow=none;html=1;rounded=0;entryX=1;entryY=1;entryDx=0;entryDy=0;exitX=0.038;exitY=0.25;exitDx=0;exitDy=0;exitPerimeter=0;" edge="1" parent="1" source="oER0Z4YhAjT8M_AFqUaL-1" target="oER0Z4YhAjT8M_AFqUaL-2">
          <mxGeometry width="50" height="50" relative="1" as="geometry">
            <mxPoint x="150" y="700" as="sourcePoint" />
            <mxPoint x="200" y="650" as="targetPoint" />
          </mxGeometry>
        </mxCell>
        <mxCell id="oER0Z4YhAjT8M_AFqUaL-10" value="" style="endArrow=none;html=1;rounded=0;entryX=0;entryY=1;entryDx=0;entryDy=0;exitX=1;exitY=0;exitDx=0;exitDy=0;" edge="1" parent="1" source="oER0Z4YhAjT8M_AFqUaL-1" target="oER0Z4YhAjT8M_AFqUaL-6">
          <mxGeometry width="50" height="50" relative="1" as="geometry">
            <mxPoint x="300" y="730" as="sourcePoint" />
            <mxPoint x="350" y="680" as="targetPoint" />
          </mxGeometry>
        </mxCell>
        <mxCell id="oER0Z4YhAjT8M_AFqUaL-11" value="" style="endArrow=none;html=1;rounded=0;entryX=0.5;entryY=1;entryDx=0;entryDy=0;exitX=0;exitY=0;exitDx=0;exitDy=0;" edge="1" parent="1" source="oER0Z4YhAjT8M_AFqUaL-4" target="oER0Z4YhAjT8M_AFqUaL-1">
          <mxGeometry width="50" height="50" relative="1" as="geometry">
            <mxPoint x="170" y="740" as="sourcePoint" />
            <mxPoint x="220" y="690" as="targetPoint" />
          </mxGeometry>
        </mxCell>
        <mxCell id="oER0Z4YhAjT8M_AFqUaL-12" value="" style="endArrow=none;html=1;rounded=0;entryX=0.5;entryY=1;entryDx=0;entryDy=0;exitX=1;exitY=0;exitDx=0;exitDy=0;" edge="1" parent="1" source="oER0Z4YhAjT8M_AFqUaL-4" target="oER0Z4YhAjT8M_AFqUaL-6">
          <mxGeometry width="50" height="50" relative="1" as="geometry">
            <mxPoint x="160" y="730" as="sourcePoint" />
            <mxPoint x="210" y="680" as="targetPoint" />
          </mxGeometry>
        </mxCell>
        <mxCell id="oER0Z4YhAjT8M_AFqUaL-13" value="" style="endArrow=none;html=1;rounded=0;entryX=0.5;entryY=1;entryDx=0;entryDy=0;exitX=0.5;exitY=0;exitDx=0;exitDy=0;" edge="1" parent="1" source="oER0Z4YhAjT8M_AFqUaL-3" target="oER0Z4YhAjT8M_AFqUaL-4">
          <mxGeometry width="50" height="50" relative="1" as="geometry">
            <mxPoint x="240" y="810" as="sourcePoint" />
            <mxPoint x="230" y="840" as="targetPoint" />
          </mxGeometry>
        </mxCell>
      </root>
    </mxGraphModel>
  </diagram>
</mxfile>
